<?xml version="1.0" encoding="UTF-8" standalone="no"?>
<svg
   xmlns:dc="http://purl.org/dc/elements/1.1/"
   xmlns:cc="http://creativecommons.org/ns#"
   xmlns:rdf="http://www.w3.org/1999/02/22-rdf-syntax-ns#"
   xmlns:svg="http://www.w3.org/2000/svg"
   xmlns="http://www.w3.org/2000/svg"
   xmlns:sodipodi="http://sodipodi.sourceforge.net/DTD/sodipodi-0.dtd"
   xmlns:inkscape="http://www.inkscape.org/namespaces/inkscape"
   version="1.1"
   stroke-miterlimit="10"
   id="svg120"
   sodipodi:docname="hash2.svg"
   width="596.51575"
   height="373.07874"
   style="fill:none;stroke:none;stroke-linecap:square;stroke-miterlimit:10"
   inkscape:version="0.92.4 (5da689c313, 2019-01-14)">
  <metadata
     id="metadata126">
    <rdf:RDF>
      <cc:Work
         rdf:about="">
        <dc:format>image/svg+xml</dc:format>
        <dc:type
           rdf:resource="http://purl.org/dc/dcmitype/StillImage" />
      </cc:Work>
    </rdf:RDF>
  </metadata>
  <defs
     id="defs124" />
  <sodipodi:namedview
     pagecolor="#ffffff"
     bordercolor="#666666"
     borderopacity="1"
     objecttolerance="10"
     gridtolerance="10"
     guidetolerance="10"
     inkscape:pageopacity="0"
     inkscape:pageshadow="2"
     inkscape:window-width="716"
     inkscape:window-height="480"
     id="namedview122"
     showgrid="false"
     inkscape:zoom="2.36"
     inkscape:cx="14"
     inkscape:cy="350.57873"
     inkscape:window-x="0"
     inkscape:window-y="0"
     inkscape:window-maximized="0"
     inkscape:current-layer="svg120" />
  <g
     clip-path="url(#p.0)"
     id="g118"
     transform="translate(-36,-27.5)">
    <path
       d="M 465,29 H 631.01575 V 66.007874 H 465 Z"
       id="path2"
       inkscape:connector-curvature="0"
       style="fill:#000000;fill-opacity:0;fill-rule:evenodd" />
    <path
       d="M 465,29 H 631.01575 V 66.007874 H 465 Z"
       id="path4"
       inkscape:connector-curvature="0"
       style="fill-rule:evenodd;stroke:#000000;stroke-width:3;stroke-linecap:butt;stroke-linejoin:round" />
    <path
       d="m 483.28125,47.642685 v 1.921875 q 0,2.515625 -1.20313,3.984375 -0.9375,1.15625 -2.35937,1.15625 -0.6875,0 -1.29688,-0.28125 -0.60937,-0.265625 -1.03125,-0.765625 -0.26562,-0.296875 -0.59375,-0.96875 -0.3125,-0.6875 -0.45312,-1.25 -0.21875,-0.796875 -0.21875,-1.875 v -1.921875 q 0,-2.53125 1.20312,-3.984375 0.9375,-1.15625 2.35938,-1.15625 0.70312,0 1.29687,0.28125 0.60938,0.265625 1.03125,0.765625 0.28125,0.3125 0.59375,0.984375 0.3125,0.671875 0.46875,1.234375 0.20313,0.796875 0.20313,1.875 z M 482.5,47.736435 q 0,-1.09375 -0.3125,-2.046875 -0.3125,-0.953125 -0.70313,-1.515625 -0.23437,-0.328125 -0.59375,-0.5625 -0.53125,-0.328125 -1.1875,-0.328125 -1.3125,0 -2.0625,1.34375 -0.73437,1.328125 -0.73437,3.109375 v 1.71875 q 0,1.109375 0.3125,2.0625 0.3125,0.953125 0.70312,1.53125 0.21875,0.3125 0.59375,0.546875 0.53125,0.328125 1.20313,0.328125 1.29687,0 2.03125,-1.34375 0.75,-1.34375 0.75,-3.125 z m 31.23682,4.453125 h 0.34375 q 0.51562,0 0.89062,0.375 0.375,0.359375 0.375,0.875 0,0.53125 -0.375,0.90625 -0.375,0.359375 -0.89062,0.359375 h -0.34375 q -0.51563,0 -0.89063,-0.359375 -0.35937,-0.375 -0.35937,-0.890625 0,-0.546875 0.375,-0.90625 0.375,-0.359375 0.875,-0.359375 z m 11.40185,0 h 0.34375 q 0.51563,0 0.89063,0.375 0.375,0.359375 0.375,0.875 0,0.53125 -0.375,0.90625 -0.375,0.359375 -0.89063,0.359375 h -0.34375 q -0.51562,0 -0.89062,-0.359375 -0.35938,-0.375 -0.35938,-0.890625 0,-0.546875 0.375,-0.90625 0.375,-0.359375 0.875,-0.359375 z m 11.40186,0 h 0.34375 q 0.51562,0 0.89062,0.375 0.375,0.359375 0.375,0.875 0,0.53125 -0.375,0.90625 -0.375,0.359375 -0.89062,0.359375 h -0.34375 q -0.51563,0 -0.89063,-0.359375 -0.35937,-0.375 -0.35937,-0.890625 0,-0.546875 0.375,-0.90625 0.375,-0.359375 0.875,-0.359375 z"
       id="path6"
       inkscape:connector-curvature="0"
       style="fill:#000000;fill-rule:nonzero" />
    <path
       d="m 465,66.00787 h 166.01575 v 37.00787 H 465 Z"
       id="path8"
       inkscape:connector-curvature="0"
       style="fill:#000000;fill-opacity:0;fill-rule:evenodd" />
    <path
       d="m 465,66.00787 h 166.01575 v 37.00787 H 465 Z"
       id="path10"
       inkscape:connector-curvature="0"
       style="fill-rule:evenodd;stroke:#000000;stroke-width:3;stroke-linecap:butt;stroke-linejoin:round" />
    <path
       d="m 480.09375,79.63493 v 11.015625 h 2.67187 q 0.26563,0 0.39063,0.109375 0.125,0.109375 0.125,0.28125 0,0.171875 -0.125,0.28125 -0.125,0.109375 -0.39063,0.109375 h -6.125 q -0.28125,0 -0.40625,-0.109375 -0.125,-0.109375 -0.125,-0.28125 0,-0.171875 0.125,-0.28125 0.125,-0.109375 0.40625,-0.109375 h 2.67188 v -9.9375 l -2.54688,0.796875 q -0.1875,0.04687 -0.26562,0.04687 -0.14063,0 -0.26563,-0.109375 -0.10937,-0.125 -0.10937,-0.28125 0,-0.140625 0.0937,-0.25 0.0781,-0.07813 0.3125,-0.15625 z m 33.64307,9.5625 h 0.34375 q 0.51562,0 0.89062,0.375 0.375,0.359375 0.375,0.875 0,0.53125 -0.375,0.90625 -0.375,0.359375 -0.89062,0.359375 h -0.34375 q -0.51563,0 -0.89063,-0.359375 -0.35937,-0.375 -0.35937,-0.890625 0,-0.546875 0.375,-0.90625 0.375,-0.359375 0.875,-0.359375 z m 11.40185,0 h 0.34375 q 0.51563,0 0.89063,0.375 0.375,0.359375 0.375,0.875 0,0.53125 -0.375,0.90625 -0.375,0.359375 -0.89063,0.359375 h -0.34375 q -0.51562,0 -0.89062,-0.359375 -0.35938,-0.375 -0.35938,-0.890625 0,-0.546875 0.375,-0.90625 0.375,-0.359375 0.875,-0.359375 z m 11.40186,0 h 0.34375 q 0.51562,0 0.89062,0.375 0.375,0.359375 0.375,0.875 0,0.53125 -0.375,0.90625 -0.375,0.359375 -0.89062,0.359375 h -0.34375 q -0.51563,0 -0.89063,-0.359375 -0.35937,-0.375 -0.35937,-0.890625 0,-0.546875 0.375,-0.90625 0.375,-0.359375 0.875,-0.359375 z"
       id="path12"
       inkscape:connector-curvature="0"
       style="fill:#000000;fill-rule:nonzero" />
    <path
       d="m 465,103.01575 h 166.01575 v 37.00787 H 465 Z"
       id="path14"
       inkscape:connector-curvature="0"
       style="fill:#000000;fill-opacity:0;fill-rule:evenodd" />
    <path
       d="m 465,103.01575 h 166.01575 v 37.00787 H 465 Z"
       id="path16"
       inkscape:connector-curvature="0"
       style="fill-rule:evenodd;stroke:#000000;stroke-width:3;stroke-linecap:butt;stroke-linejoin:round" />
    <path
       d="m 476.34375,127.65843 h 5.98437 v -0.29688 q 0,-0.28125 0.10938,-0.40625 0.10937,-0.125 0.29687,-0.125 0.15625,0 0.26563,0.125 0.125,0.125 0.125,0.40625 v 1.07813 h -7.53125 v -1.15625 q 2.375,-2.125 4.60937,-4.34375 1.04688,-1.01562 1.4375,-1.5 0.39063,-0.48437 0.53125,-0.84375 0.15625,-0.375 0.15625,-0.75 0,-1 -0.8125,-1.76562 -0.8125,-0.78125 -1.95312,-0.78125 -1.01563,0 -1.8125,0.59375 -0.78125,0.57812 -1.01563,1.45312 -0.0469,0.21875 -0.14062,0.28125 -0.10938,0.0937 -0.25,0.0937 -0.15625,0 -0.26563,-0.10937 -0.10937,-0.10938 -0.10937,-0.25 0,-0.45313 0.48437,-1.20313 0.48438,-0.76562 1.34375,-1.20312 0.85938,-0.4375 1.76563,-0.4375 1.45312,0 2.5,1.01562 1.04687,1 1.04687,2.28125 0,0.54688 -0.17187,1 -0.17188,0.4375 -0.60938,0.98438 -0.42187,0.53125 -1.51562,1.60937 -2.73438,2.70313 -4.46875,4.20313 z m 37.39307,-1.45313 h 0.34375 q 0.51562,0 0.89062,0.375 0.375,0.35938 0.375,0.875 0,0.53125 -0.375,0.90625 -0.375,0.35938 -0.89062,0.35938 h -0.34375 q -0.51563,0 -0.89063,-0.35938 -0.35937,-0.37499 -0.35937,-0.89062 0,-0.54687 0.375,-0.90625 0.375,-0.35937 0.875,-0.35938 z m 11.40185,0 h 0.34375 q 0.51563,0 0.89063,0.375 0.375,0.35938 0.375,0.875 0,0.53125 -0.375,0.90625 -0.375,0.35938 -0.89063,0.35938 h -0.34375 q -0.51562,0 -0.89062,-0.35938 -0.35938,-0.37499 -0.35938,-0.89062 0,-0.54687 0.375,-0.90625 0.375,-0.35937 0.875,-0.35938 z m 11.40186,0 h 0.34375 q 0.51562,0 0.89062,0.375 0.375,0.35938 0.375,0.875 0,0.53125 -0.375,0.90625 -0.375,0.35938 -0.89062,0.35938 h -0.34375 q -0.51563,0 -0.89063,-0.35938 -0.35937,-0.37499 -0.35937,-0.89062 0,-0.54687 0.375,-0.90625 0.375,-0.35937 0.875,-0.35938 z"
       id="path18"
       inkscape:connector-curvature="0"
       style="fill:#000000;fill-rule:nonzero" />
    <path
       d="m 465,140.02362 h 166.01575 v 37.00787 H 465 Z"
       id="path20"
       inkscape:connector-curvature="0"
       style="fill:#000000;fill-opacity:0;fill-rule:evenodd" />
    <path
       d="m 465,140.02362 h 166.01575 v 37.00787 H 465 Z"
       id="path22"
       inkscape:connector-curvature="0"
       style="fill-rule:evenodd;stroke:#000000;stroke-width:3;stroke-linecap:butt;stroke-linejoin:round" />
    <path
       d="m 481.29688,159.1038 q 1.07812,0.48437 1.64062,1.32812 0.57813,0.84375 0.57813,1.75 0,1.40625 -1.14063,2.48438 -1.14062,1.0625 -2.84375,1.0625 -1,0 -2.07812,-0.42188 -1.07813,-0.4375 -1.5,-0.875 -0.14063,-0.15625 -0.14063,-0.32812 0,-0.14063 0.0937,-0.25 0.10938,-0.10938 0.26563,-0.10938 0.14062,0 0.32812,0.14063 1.4375,1.0625 3.04688,1.0625 1.35937,0 2.26562,-0.84375 0.92188,-0.85938 0.92188,-1.89063 0,-0.70312 -0.45313,-1.35937 -0.45312,-0.67188 -1.29687,-1.0625 -0.84375,-0.39063 -1.70313,-0.39063 -0.28125,0 -0.40625,-0.0937 -0.10937,-0.10937 -0.10937,-0.28125 0,-0.17187 0.10937,-0.28125 0.10938,-0.10937 0.34375,-0.10937 h 0.67188 q 1.04687,0 1.71875,-0.64063 0.6875,-0.64062 0.6875,-1.48437 0,-0.875 -0.71875,-1.53125 -0.70313,-0.67188 -1.85938,-0.67188 -0.79687,0 -1.48437,0.28125 -0.67188,0.28125 -1.07813,0.75 -0.15625,0.1875 -0.23437,0.23438 -0.0781,0.0469 -0.17188,0.0469 -0.15625,0 -0.28125,-0.10937 -0.10937,-0.10938 -0.10937,-0.26563 0,-0.35937 0.8125,-0.9375 1.125,-0.78125 2.54687,-0.78125 1.48438,0 2.42188,0.89063 0.95312,0.875 0.95312,2.10937 0,0.78125 -0.45312,1.48438 -0.45313,0.6875 -1.34375,1.09375 z m 32.43994,4.10937 h 0.34375 q 0.51562,0 0.89062,0.375 0.375,0.35938 0.375,0.875 0,0.53125 -0.375,0.90625 -0.375,0.35938 -0.89062,0.35938 h -0.34375 q -0.51563,0 -0.89063,-0.35938 -0.35937,-0.375 -0.35937,-0.89062 0,-0.54688 0.375,-0.90625 0.375,-0.35938 0.875,-0.35938 z m 11.40185,0 h 0.34375 q 0.51563,0 0.89063,0.375 0.375,0.35938 0.375,0.875 0,0.53125 -0.375,0.90625 -0.375,0.35938 -0.89063,0.35938 h -0.34375 q -0.51562,0 -0.89062,-0.35938 -0.35938,-0.375 -0.35938,-0.89062 0,-0.54688 0.375,-0.90625 0.375,-0.35938 0.875,-0.35938 z m 11.40186,0 h 0.34375 q 0.51562,0 0.89062,0.375 0.375,0.35938 0.375,0.875 0,0.53125 -0.375,0.90625 -0.375,0.35938 -0.89062,0.35938 h -0.34375 q -0.51563,0 -0.89063,-0.35938 -0.35937,-0.375 -0.35937,-0.89062 0,-0.54688 0.375,-0.90625 0.375,-0.35938 0.875,-0.35938 z"
       id="path24"
       inkscape:connector-curvature="0"
       style="fill:#000000;fill-rule:nonzero" />
    <path
       d="m 465,177.0315 h 166.01575 v 37.00787 H 465 Z"
       id="path26"
       inkscape:connector-curvature="0"
       style="fill:#000000;fill-opacity:0;fill-rule:evenodd" />
    <path
       d="m 465,177.0315 h 166.01575 v 37.00787 H 465 Z"
       id="path28"
       inkscape:connector-curvature="0"
       style="fill-rule:evenodd;stroke:#000000;stroke-width:3;stroke-linecap:butt;stroke-linejoin:round" />
    <path
       d="m 481.15625,199.20543 h -5.17188 v -0.90625 l 4.32813,-7.48438 h 1.625 v 7.60938 h 0.65625 q 0.28125,0 0.40625,0.10937 0.125,0.0937 0.125,0.28125 0,0.15625 -0.125,0.28125 -0.125,0.10938 -0.40625,0.10938 h -0.65625 v 2.46875 h 0.65625 q 0.28125,0 0.40625,0.10937 0.125,0.10938 0.125,0.28125 0,0.17188 -0.125,0.28125 -0.125,0.10938 -0.40625,0.10938 h -2.89063 q -0.29687,0 -0.42187,-0.10938 -0.10938,-0.10937 -0.10938,-0.28125 0,-0.17187 0.10938,-0.28125 0.125,-0.10937 0.42187,-0.10937 h 1.45313 z m 0,-0.78125 v -6.82813 H 480.75 l -3.95313,6.82813 z m 32.58057,1.79687 h 0.34375 q 0.51562,0 0.89062,0.375 0.375,0.35938 0.375,0.875 0,0.53125 -0.375,0.90625 -0.375,0.35938 -0.89062,0.35938 h -0.34375 q -0.51563,0 -0.89063,-0.35938 -0.35937,-0.375 -0.35937,-0.89062 0,-0.54688 0.375,-0.90625 0.375,-0.35938 0.875,-0.35938 z m 11.40185,0 h 0.34375 q 0.51563,0 0.89063,0.375 0.375,0.35938 0.375,0.875 0,0.53125 -0.375,0.90625 -0.375,0.35938 -0.89063,0.35938 h -0.34375 q -0.51562,0 -0.89062,-0.35938 -0.35938,-0.375 -0.35938,-0.89062 0,-0.54688 0.375,-0.90625 0.375,-0.35938 0.875,-0.35938 z m 11.40186,0 h 0.34375 q 0.51562,0 0.89062,0.375 0.375,0.35938 0.375,0.875 0,0.53125 -0.375,0.90625 -0.375,0.35938 -0.89062,0.35938 h -0.34375 q -0.51563,0 -0.89063,-0.35938 -0.35937,-0.375 -0.35937,-0.89062 0,-0.54688 0.375,-0.90625 0.375,-0.35938 0.875,-0.35938 z"
       id="path30"
       inkscape:connector-curvature="0"
       style="fill:#000000;fill-rule:nonzero" />
    <path
       d="m 465,214.03937 h 166.01575 v 37.00787 H 465 Z"
       id="path32"
       inkscape:connector-curvature="0"
       style="fill:#000000;fill-opacity:0;fill-rule:evenodd" />
    <path
       d="m 465,214.03937 h 166.01575 v 37.00787 H 465 Z"
       id="path34"
       inkscape:connector-curvature="0"
       style="fill-rule:evenodd;stroke:#000000;stroke-width:3;stroke-linecap:butt;stroke-linejoin:round" />
    <path
       d="m 477.54688,228.60393 v 3.8125 q 0.6875,-0.28125 1.3125,-0.42188 0.64062,-0.14062 1.20312,-0.14062 1.46875,0 2.45313,1.03125 1,1.01562 1,2.70312 0,1.85938 -1.125,3.01563 -1.10938,1.14062 -2.78125,1.14062 -1.09375,0 -2.125,-0.5 -0.71875,-0.34375 -1.3125,-0.84375 -0.35938,-0.3125 -0.35938,-0.51562 0,-0.17188 0.10938,-0.28125 0.125,-0.10938 0.26562,-0.10938 0.15625,0 0.34375,0.15625 1.39063,1.3125 3.04688,1.3125 1.35937,0 2.25,-0.92187 0.89062,-0.9375 0.89062,-2.5 0,-1.3125 -0.76562,-2.10938 -0.76563,-0.8125 -1.95313,-0.8125 -1.21875,0 -2.4375,0.64063 -0.29687,0.15625 -0.42187,0.15625 -0.15625,0 -0.26563,-0.10938 -0.0937,-0.10937 -0.0937,-0.3125 v -5.17187 h 5.42188 q 0.28125,0 0.40625,0.10937 0.125,0.10938 0.125,0.28125 0,0.17188 -0.125,0.28125 -0.125,0.10938 -0.40625,0.10938 z m 36.18994,8.625 h 0.34375 q 0.51562,0 0.89062,0.375 0.375,0.35937 0.375,0.875 0,0.53125 -0.375,0.90625 -0.375,0.35937 -0.89062,0.35937 h -0.34375 q -0.51563,0 -0.89063,-0.35937 -0.35937,-0.375 -0.35937,-0.89063 0,-0.54687 0.375,-0.90625 0.375,-0.35937 0.875,-0.35937 z m 11.40185,0 h 0.34375 q 0.51563,0 0.89063,0.375 0.375,0.35937 0.375,0.875 0,0.53125 -0.375,0.90625 -0.375,0.35937 -0.89063,0.35937 h -0.34375 q -0.51562,0 -0.89062,-0.35937 -0.35938,-0.375 -0.35938,-0.89063 0,-0.54687 0.375,-0.90625 0.375,-0.35937 0.875,-0.35937 z m 11.40186,0 h 0.34375 q 0.51562,0 0.89062,0.375 0.375,0.35937 0.375,0.875 0,0.53125 -0.375,0.90625 -0.375,0.35937 -0.89062,0.35937 h -0.34375 q -0.51563,0 -0.89063,-0.35937 -0.35937,-0.375 -0.35937,-0.89063 0,-0.54687 0.375,-0.90625 0.375,-0.35937 0.875,-0.35937 z"
       id="path36"
       inkscape:connector-curvature="0"
       style="fill:#000000;fill-rule:nonzero" />
    <path
       d="m 465,251.04724 h 166.01575 v 37.00787 H 465 Z"
       id="path38"
       inkscape:connector-curvature="0"
       style="fill:#000000;fill-opacity:0;fill-rule:evenodd" />
    <path
       d="m 465,251.04724 h 166.01575 v 37.00787 H 465 Z"
       id="path40"
       inkscape:connector-curvature="0"
       style="fill-rule:evenodd;stroke:#000000;stroke-width:3;stroke-linecap:butt;stroke-linejoin:round" />
    <path
       d="m 477.375,271.54932 q 0.71875,-1.07812 1.48437,-1.57812 0.76563,-0.51563 1.70313,-0.51563 1.25,0 2.20312,1.04688 0.96875,1.03125 0.96875,2.54687 0,1.39063 -0.875,2.54688 -0.875,1.15625 -2.4375,1.15625 -1,0 -1.875,-0.625 -0.875,-0.625 -1.39062,-1.90625 -0.60938,-1.60938 -0.60938,-3.5625 0,-1.46875 0.57813,-2.71875 0.45312,-0.98438 1.1875,-1.71875 0.75,-0.73438 1.73437,-1.20313 0.98438,-0.46875 2.14063,-0.46875 0.78125,0 1.29687,0.3125 0.21875,0.14063 0.21875,0.375 0,0.17188 -0.10937,0.28125 -0.0937,0.0937 -0.25,0.0937 -0.125,0 -0.28125,-0.0937 -0.39063,-0.1875 -0.95313,-0.1875 -1.8125,0 -3.29687,1.5625 -1.48438,1.54688 -1.48438,3.70313 0,0.29687 0.0469,0.95312 z m 0.17187,1.28125 q 0.35938,1.6875 1.10938,2.42188 0.76562,0.71875 1.79687,0.71875 1.03125,0 1.76563,-0.8125 0.75,-0.8125 0.75,-2.10938 0,-1.21875 -0.75,-2.01562 -0.73438,-0.79688 -1.67188,-0.79688 -0.90625,0 -1.73437,0.76563 -0.5625,0.51562 -1.26563,1.82812 z m 36.18994,1.40625 h 0.34375 q 0.51563,0 0.89063,0.375 0.375,0.35938 0.375,0.875 0,0.53125 -0.375,0.90625 -0.375,0.35938 -0.89063,0.35938 h -0.34375 q -0.51562,0 -0.89062,-0.35938 -0.35938,-0.375 -0.35938,-0.89062 0,-0.54688 0.375,-0.90625 0.375,-0.35938 0.875,-0.35938 z m 11.40186,0 h 0.34375 q 0.51562,0 0.89062,0.375 0.375,0.35938 0.375,0.875 0,0.53125 -0.375,0.90625 -0.375,0.35938 -0.89062,0.35938 h -0.34375 q -0.51563,0 -0.89063,-0.35938 -0.35937,-0.375 -0.35937,-0.89062 0,-0.54688 0.375,-0.90625 0.375,-0.35938 0.875,-0.35938 z m 11.40185,0 h 0.34375 q 0.51563,0 0.89063,0.375 0.375,0.35938 0.375,0.875 0,0.53125 -0.375,0.90625 -0.375,0.35938 -0.89063,0.35938 h -0.34375 q -0.51562,0 -0.89062,-0.35938 -0.35938,-0.375 -0.35938,-0.89062 0,-0.54688 0.375,-0.90625 0.375,-0.35938 0.875,-0.35938 z"
       id="path42"
       inkscape:connector-curvature="0"
       style="fill:#000000;fill-rule:nonzero" />
    <path
       d="m 465,288.0551 h 166.01575 v 37.00787 H 465 Z"
       id="path44"
       inkscape:connector-curvature="0"
       style="fill:#000000;fill-opacity:0;fill-rule:evenodd" />
    <path
       d="m 465,288.0551 h 166.01575 v 37.00787 H 465 Z"
       id="path46"
       inkscape:connector-curvature="0"
       style="fill-rule:evenodd;stroke:#000000;stroke-width:3;stroke-linecap:butt;stroke-linejoin:round" />
    <path
       d="m 482.32812,302.97906 v -0.35938 h -5.59375 v 0.6875 q 0,0.28125 -0.10937,0.40625 -0.0937,0.10938 -0.28125,0.10938 -0.15625,0 -0.28125,-0.10938 -0.10938,-0.125 -0.10938,-0.40625 v -1.46875 h 7.15625 v 1.23438 l -3.14062,10.03125 q -0.0625,0.23437 -0.17188,0.3125 -0.0937,0.0781 -0.23437,0.0781 -0.15625,0 -0.28125,-0.10937 -0.10938,-0.10938 -0.10938,-0.26563 0,-0.0937 0.0625,-0.25 z m 31.40869,8.26562 h 0.34375 q 0.51563,0 0.89063,0.375 0.375,0.35938 0.375,0.875 0,0.53125 -0.375,0.90625 -0.375,0.35938 -0.89063,0.35938 h -0.34375 q -0.51562,0 -0.89062,-0.35938 -0.35938,-0.375 -0.35938,-0.89062 0,-0.54688 0.375,-0.90625 0.375,-0.35938 0.875,-0.35938 z m 11.40186,0 h 0.34375 q 0.51562,0 0.89062,0.375 0.375,0.35938 0.375,0.875 0,0.53125 -0.375,0.90625 -0.375,0.35938 -0.89062,0.35938 h -0.34375 q -0.51563,0 -0.89063,-0.35938 -0.35937,-0.375 -0.35937,-0.89062 0,-0.54688 0.375,-0.90625 0.375,-0.35938 0.875,-0.35938 z m 11.40185,0 h 0.34375 q 0.51563,0 0.89063,0.375 0.375,0.35938 0.375,0.875 0,0.53125 -0.375,0.90625 -0.375,0.35938 -0.89063,0.35938 h -0.34375 q -0.51562,0 -0.89062,-0.35938 -0.35938,-0.375 -0.35938,-0.89062 0,-0.54688 0.375,-0.90625 0.375,-0.35938 0.875,-0.35938 z"
       id="path48"
       inkscape:connector-curvature="0"
       style="fill:#000000;fill-rule:nonzero" />
    <path
       d="m 465,325.063 h 166.01575 v 37.00787 H 465 Z"
       id="path50"
       inkscape:connector-curvature="0"
       style="fill:#000000;fill-opacity:0;fill-rule:evenodd" />
    <path
       d="m 465,325.063 h 166.01575 v 37.00787 H 465 Z"
       id="path52"
       inkscape:connector-curvature="0"
       style="fill-rule:evenodd;stroke:#000000;stroke-width:3;stroke-linecap:butt;stroke-linejoin:round" />
    <path
       d="m 481.29688,344.44006 q 0.98437,0.48438 1.46875,1.26563 0.5,0.76562 0.5,1.65625 0,1.375 -1.04688,2.39062 -1.03125,1.01563 -2.51562,1.01563 -1.48438,0 -2.53125,-1.01563 -1.03125,-1.01562 -1.03125,-2.39062 0,-0.89063 0.5,-1.65625 0.5,-0.78125 1.48437,-1.26563 -0.85937,-0.48437 -1.25,-1.01562 -0.53125,-0.75 -0.53125,-1.65625 0,-1.28125 0.98438,-2.23438 0.98437,-0.96875 2.375,-0.96875 1.40625,0 2.39062,0.96875 0.98438,0.95313 0.98438,2.23438 0,0.90625 -0.54688,1.65625 -0.375,0.53125 -1.23437,1.01562 z m 0.98437,-2.64062 q 0,-1 -0.75,-1.71875 -0.75,-0.73438 -1.82812,-0.73438 -1.07813,0 -1.82813,0.73438 -0.75,0.71875 -0.75,1.70312 0,0.90625 0.73438,1.59375 0.75,0.6875 1.84375,0.6875 1.09375,0 1.82812,-0.6875 0.75,-0.6875 0.75,-1.57812 z m 0.20313,5.57812 q 0,-1.03125 -0.79688,-1.78125 -0.79687,-0.76562 -1.98437,-0.76562 -1.1875,0 -1.98438,0.76562 -0.79687,0.75 -0.79687,1.76563 0,1.0625 0.79687,1.84375 0.8125,0.78125 1.98438,0.78125 1.1875,0 1.98437,-0.78125 0.79688,-0.78125 0.79688,-1.82813 z m 31.25244,0.875 h 0.34375 q 0.51563,0 0.89063,0.375 0.375,0.35938 0.375,0.875 0,0.53125 -0.375,0.90625 -0.375,0.35938 -0.89063,0.35938 h -0.34375 q -0.51562,0 -0.89062,-0.35938 -0.35938,-0.375 -0.35938,-0.89062 0,-0.54688 0.375,-0.90625 0.375,-0.35938 0.875,-0.35938 z m 11.40186,0 h 0.34375 q 0.51562,0 0.89062,0.375 0.375,0.35938 0.375,0.875 0,0.53125 -0.375,0.90625 -0.375,0.35938 -0.89062,0.35938 h -0.34375 q -0.51563,0 -0.89063,-0.35938 -0.35937,-0.375 -0.35937,-0.89062 0,-0.54688 0.375,-0.90625 0.375,-0.35938 0.875,-0.35938 z m 11.40185,0 h 0.34375 q 0.51563,0 0.89063,0.375 0.375,0.35938 0.375,0.875 0,0.53125 -0.375,0.90625 -0.375,0.35938 -0.89063,0.35938 h -0.34375 q -0.51562,0 -0.89062,-0.35938 -0.35938,-0.375 -0.35938,-0.89062 0,-0.54688 0.375,-0.90625 0.375,-0.35938 0.875,-0.35938 z"
       id="path54"
       inkscape:connector-curvature="0"
       style="fill:#000000;fill-rule:nonzero" />
    <path
       d="m 465,362.07086 h 166.01575 v 37.00787 H 465 Z"
       id="path56"
       inkscape:connector-curvature="0"
       style="fill:#000000;fill-opacity:0;fill-rule:evenodd" />
    <path
       d="m 465,362.07086 h 166.01575 v 37.00787 H 465 Z"
       id="path58"
       inkscape:connector-curvature="0"
       style="fill-rule:evenodd;stroke:#000000;stroke-width:3;stroke-linecap:butt;stroke-linejoin:round" />
    <path
       d="m 482.89062,380.90106 q -0.59375,1.07812 -1.42187,1.625 -0.82813,0.53125 -1.70313,0.53125 -0.8125,0 -1.57812,-0.46875 -0.75,-0.46875 -1.20313,-1.35938 -0.4375,-0.89062 -0.4375,-1.875 0,-1.4375 0.89063,-2.60937 0.89062,-1.17188 2.375,-1.17188 1.04687,0 1.92187,0.65625 0.875,0.65625 1.35938,1.90625 0.625,1.60938 0.625,3.73438 0,1.65625 -0.53125,2.75 -0.35938,0.73437 -1.04688,1.4375 -0.67187,0.6875 -1.53125,1.125 -1.15625,0.59375 -2.42187,0.59375 -0.84375,0 -1.35938,-0.3125 -0.25,-0.15625 -0.25,-0.375 0,-0.15625 0.10938,-0.26563 0.10937,-0.10937 0.26562,-0.10937 0.125,0 0.32813,0.10937 0.35937,0.17188 0.84375,0.17188 1.96875,0 3.39062,-1.42188 1.42188,-1.42187 1.42188,-3.57812 0,-0.375 -0.0469,-1.09375 z M 482.75,379.60418 q -0.5,-1.875 -1.23438,-2.5625 -0.71875,-0.6875 -1.6875,-0.6875 -1,0 -1.75,0.84375 -0.75,0.82813 -0.75,2.14063 0,1.26562 0.75,2.10937 0.75,0.82813 1.70313,0.82813 0.54687,0 1.07812,-0.29688 0.53125,-0.29687 1.01563,-0.89062 0.29687,-0.40625 0.875,-1.48438 z m 30.98681,5.65625 h 0.34375 q 0.51563,0 0.89063,0.375 0.375,0.35938 0.375,0.875 0,0.53125 -0.375,0.90625 -0.375,0.35938 -0.89063,0.35938 h -0.34375 q -0.51562,0 -0.89062,-0.35938 -0.35938,-0.375 -0.35938,-0.89062 0,-0.54688 0.375,-0.90625 0.375,-0.35938 0.875,-0.35938 z m 11.40186,0 h 0.34375 q 0.51562,0 0.89062,0.375 0.375,0.35938 0.375,0.875 0,0.53125 -0.375,0.90625 -0.375,0.35938 -0.89062,0.35938 h -0.34375 q -0.51563,0 -0.89063,-0.35938 -0.35937,-0.375 -0.35937,-0.89062 0,-0.54688 0.375,-0.90625 0.375,-0.35938 0.875,-0.35938 z m 11.40185,0 h 0.34375 q 0.51563,0 0.89063,0.375 0.375,0.35938 0.375,0.875 0,0.53125 -0.375,0.90625 -0.375,0.35938 -0.89063,0.35938 h -0.34375 q -0.51562,0 -0.89062,-0.35938 -0.35938,-0.375 -0.35938,-0.89062 0,-0.54688 0.375,-0.90625 0.375,-0.35938 0.875,-0.35938 z"
       id="path60"
       inkscape:connector-curvature="0"
       style="fill:#000000;fill-rule:nonzero" />
    <path
       d="m 225,214.03937 v 0 c 0,-35.12009 28.77364,-63.59055 64.26773,-63.59055 v 0 c 17.04483,0 33.3916,6.6997 45.44412,18.62525 12.05255,11.92553 18.82358,28.10003 18.82358,44.9653 v 0 c 0,35.12009 -28.77362,63.59054 -64.2677,63.59054 v 0 C 253.77364,277.62991 225,249.15946 225,214.03937 Z"
       id="path62"
       inkscape:connector-curvature="0"
       style="fill:#000000;fill-opacity:0;fill-rule:evenodd" />
    <path
       d="m 225,214.03937 v 0 c 0,-35.12009 28.77364,-63.59055 64.26773,-63.59055 v 0 c 17.04483,0 33.3916,6.6997 45.44412,18.62525 12.05255,11.92553 18.82358,28.10003 18.82358,44.9653 v 0 c 0,35.12009 -28.77362,63.59054 -64.2677,63.59054 v 0 C 253.77364,277.62991 225,249.15946 225,214.03937 Z"
       id="path64"
       inkscape:connector-curvature="0"
       style="fill-rule:evenodd;stroke:#000000;stroke-width:3;stroke-linecap:butt;stroke-linejoin:round" />
    <path
       d="m 268.99146,209.95937 v -13.35938 h 1.76563 v 5.48438 h 6.9375 v -5.48438 h 1.76562 v 13.35938 h -1.76562 v -6.29688 h -6.9375 v 6.29688 z m 19.51984,-1.1875 q -0.92188,0.76562 -1.76563,1.09375 -0.82812,0.3125 -1.79687,0.3125 -1.59375,0 -2.45313,-0.78125 -0.85937,-0.78125 -0.85937,-1.98438 0,-0.71875 0.32812,-1.29687 0.32813,-0.59375 0.84375,-0.9375 0.53125,-0.35938 1.1875,-0.54688 0.46875,-0.125 1.45313,-0.25 1.98437,-0.23437 2.92187,-0.5625 0.0156,-0.34375 0.0156,-0.42187 0,-1 -0.46875,-1.42188 -0.625,-0.54687 -1.875,-0.54687 -1.15625,0 -1.70313,0.40625 -0.54687,0.40625 -0.8125,1.42187 l -1.60937,-0.21875 q 0.21875,-1.01562 0.71875,-1.64062 0.5,-0.64063 1.45312,-0.98438 0.95313,-0.34375 2.1875,-0.34375 1.25,0 2.01563,0.29688 0.78125,0.28125 1.14062,0.73437 0.375,0.4375 0.51563,1.10938 0.0781,0.42187 0.0781,1.51562 v 2.1875 q 0,2.28125 0.10938,2.89063 0.10937,0.59375 0.40625,1.15625 h -1.70313 q -0.26562,-0.51563 -0.32812,-1.1875 z m -0.14063,-3.67188 q -0.89062,0.375 -2.67187,0.625 -1.01563,0.14063 -1.4375,0.32813 -0.42188,0.1875 -0.65625,0.53125 -0.21875,0.34375 -0.21875,0.78125 0,0.65625 0.5,1.09375 0.5,0.4375 1.45312,0.4375 0.9375,0 1.67188,-0.40625 0.75,-0.42188 1.09375,-1.14063 0.26562,-0.5625 0.26562,-1.64062 z m 3.54758,1.96875 1.625,-0.25 q 0.125,0.96875 0.75,1.5 0.625,0.51563 1.75,0.51563 1.125,0 1.67187,-0.45313 0.54688,-0.46875 0.54688,-1.09375 0,-0.54687 -0.48438,-0.875 -0.32812,-0.21875 -1.67187,-0.54687 -1.8125,-0.46875 -2.51563,-0.79688 -0.6875,-0.32812 -1.04687,-0.90625 -0.35938,-0.59375 -0.35938,-1.3125 0,-0.64062 0.29688,-1.1875 0.29687,-0.5625 0.8125,-0.92187 0.375,-0.28125 1.03125,-0.46875 0.67187,-0.20313 1.42187,-0.20313 1.14063,0 2,0.32813 0.85938,0.32812 1.26563,0.89062 0.42187,0.5625 0.57812,1.5 l -1.60937,0.21875 q -0.10938,-0.75 -0.64063,-1.17187 -0.51562,-0.42188 -1.46875,-0.42188 -1.14062,0 -1.625,0.375 -0.46875,0.375 -0.46875,0.875 0,0.3125 0.1875,0.57813 0.20313,0.26562 0.64063,0.4375 0.23437,0.0937 1.4375,0.42187 1.75,0.45313 2.4375,0.75 0.6875,0.29688 1.07812,0.85938 0.39063,0.5625 0.39063,1.40625 0,0.82812 -0.48438,1.54687 -0.46875,0.71875 -1.375,1.125 -0.90625,0.39063 -2.04687,0.39063 -1.875,0 -2.875,-0.78125 -0.98438,-0.78125 -1.25,-2.32813 z m 9.98437,2.89063 v -13.35938 h 1.64063 v 4.79688 q 1.14062,-1.32813 2.89062,-1.32813 1.07813,0 1.85938,0.42188 0.79687,0.42187 1.14062,1.17187 0.34375,0.75 0.34375,2.17188 v 6.125 H 308.137 v -6.125 q 0,-1.23438 -0.53125,-1.79688 -0.53125,-0.5625 -1.51563,-0.5625 -0.71875,0 -1.35937,0.39063 -0.64063,0.375 -0.92188,1.01562 -0.26562,0.64063 -0.26562,1.78125 v 5.29688 z"
       id="path66"
       inkscape:connector-curvature="0"
       style="fill:#000000;fill-rule:nonzero" />
    <path
       d="m 258.2215,231.95937 v -8.40625 h -1.45313 v -1.26563 h 1.45313 v -1.03125 q 0,-0.96875 0.17187,-1.45312 0.23438,-0.64063 0.82813,-1.03125 0.59375,-0.39063 1.67187,-0.39063 0.6875,0 1.53125,0.15625 l -0.25,1.4375 q -0.5,-0.0937 -0.95312,-0.0937 -0.75,0 -1.0625,0.32813 -0.3125,0.3125 -0.3125,1.1875 v 0.89062 h 1.89062 v 1.26563 h -1.89062 v 8.40625 z m 11.12082,0 v -1.42188 q -1.125,1.64063 -3.0625,1.64063 -0.85938,0 -1.60938,-0.32813 -0.73437,-0.32812 -1.09375,-0.82812 -0.35937,-0.5 -0.5,-1.21875 -0.10937,-0.46875 -0.10937,-1.53125 v -5.98438 h 1.64062 v 5.35938 q 0,1.28125 0.10938,1.73437 0.15625,0.64063 0.65625,1.01563 0.5,0.375 1.23437,0.375 0.73438,0 1.375,-0.375 0.65625,-0.39063 0.92188,-1.03125 0.26562,-0.65625 0.26562,-1.89063 v -5.1875 h 1.64063 v 9.67188 z m 4.04758,0 v -9.67188 h 1.46875 v 1.375 q 1.0625,-1.59375 3.07812,-1.59375 0.875,0 1.60938,0.3125 0.73437,0.3125 1.09375,0.82813 0.375,0.5 0.51562,1.20312 0.0937,0.45313 0.0937,1.59375 v 5.95313 h -1.64062 v -5.89063 q 0,-1 -0.20313,-1.48437 -0.1875,-0.5 -0.67187,-0.79688 -0.48438,-0.29687 -1.14063,-0.29687 -1.04687,0 -1.8125,0.67187 -0.75,0.65625 -0.75,2.51563 v 5.28125 z m 16.68823,-3.54688 1.60937,0.21875 q -0.26562,1.65625 -1.35937,2.60938 -1.07813,0.9375 -2.67188,0.9375 -1.98437,0 -3.1875,-1.29688 -1.20312,-1.29687 -1.20312,-3.71875 0,-1.57812 0.51562,-2.75 0.51563,-1.17187 1.57813,-1.75 1.0625,-0.59375 2.3125,-0.59375 1.57812,0 2.57812,0.79688 1,0.79687 1.28125,2.26562 l -1.59375,0.23438 q -0.23437,-0.96875 -0.8125,-1.45313 -0.57812,-0.5 -1.39062,-0.5 -1.23438,0 -2.01563,0.89063 -0.78125,0.89062 -0.78125,2.8125 0,1.95312 0.75,2.84375 0.75,0.875 1.95313,0.875 0.96875,0 1.60937,-0.59375 0.65625,-0.59375 0.82813,-1.82813 z m 6.59375,2.07813 0.23437,1.45312 q -0.6875,0.14063 -1.23437,0.14063 -0.89063,0 -1.39063,-0.28125 -0.48437,-0.28125 -0.6875,-0.73438 -0.20312,-0.46875 -0.20312,-1.9375 v -5.57812 h -1.20313 v -1.26563 h 1.20313 v -2.39062 l 1.625,-0.98438 v 3.375 h 1.65625 v 1.26563 h -1.65625 v 5.67187 q 0,0.6875 0.0781,0.89063 0.0937,0.20312 0.28125,0.32812 0.20313,0.10938 0.57813,0.10938 0.26562,0 0.71875,-0.0625 z m 1.60516,-10 v -1.89063 h 1.64063 v 1.89063 z m 0,11.46875 v -9.67188 h 1.64063 v 9.67188 z m 3.53546,-4.84375 q 0,-2.6875 1.48438,-3.96875 1.25,-1.07813 3.04687,-1.07813 2,0 3.26563,1.3125 1.26562,1.29688 1.26562,3.60938 0,1.85937 -0.5625,2.9375 -0.5625,1.0625 -1.64062,1.65625 -1.0625,0.59375 -2.32813,0.59375 -2.03125,0 -3.28125,-1.29688 -1.25,-1.3125 -1.25,-3.76562 z m 1.6875,0 q 0,1.85937 0.79688,2.79687 0.8125,0.92188 2.04687,0.92188 1.21875,0 2.03125,-0.92188 0.8125,-0.9375 0.8125,-2.84375 0,-1.79687 -0.8125,-2.71875 -0.8125,-0.92187 -2.03125,-0.92187 -1.23437,0 -2.04687,0.92187 -0.79688,0.90625 -0.79688,2.76563 z m 9.29758,4.84375 v -9.67188 h 1.46875 v 1.375 q 1.0625,-1.59375 3.07812,-1.59375 0.875,0 1.60938,0.3125 0.73437,0.3125 1.09375,0.82813 0.375,0.5 0.51562,1.20312 0.0937,0.45313 0.0937,1.59375 v 5.95313 h -1.64062 v -5.89063 q 0,-1 -0.20313,-1.48437 -0.1875,-0.5 -0.67187,-0.79688 -0.48438,-0.29687 -1.14063,-0.29687 -1.04687,0 -1.8125,0.67187 -0.75,0.65625 -0.75,2.51563 v 5.28125 z"
       id="path68"
       inkscape:connector-curvature="0"
       style="fill:#000000;fill-rule:nonzero" />
    <path
       d="m 36,129.07086 h 128.53543 v 37.00787 H 36 Z"
       id="path70"
       inkscape:connector-curvature="0"
       style="fill:#000000;fill-opacity:0;fill-rule:evenodd" />
    <path
       d="m 82.53494,143.95961 v 2.01562 h -1.140625 v -2.01562 z m 0.04687,4.78125 h -4.625 q -0.28125,0 -0.40625,-0.10938 -0.109375,-0.10937 -0.109375,-0.28125 0,-0.17187 0.109375,-0.28125 0.125,-0.10937 0.40625,-0.10937 h 5.40625 v 8.57812 q 0,1 -0.40625,1.65625 -0.40625,0.67188 -1.21875,1.09375 -0.5625,0.28125 -1.34375,0.28125 h -2.48437 q -0.28125,0 -0.40625,-0.10937 -0.109375,-0.0937 -0.109375,-0.28125 0,-0.17188 0.109375,-0.28125 0.125,-0.10938 0.40625,-0.10938 h 2.453125 q 1,0 1.609375,-0.65625 0.609375,-0.64062 0.609375,-1.59375 z m 14.058105,-4.39063 v 10.85938 h 1.046875 q 0.28125,0 0.40625,0.10937 0.125,0.10938 0.125,0.28125 0,0.17188 -0.125,0.28125 -0.125,0.10938 -0.40625,0.10938 h -1.82812 v -1.54688 q -1.359375,1.85938 -3.453125,1.85938 -1.046875,0 -2.015625,-0.5625 -0.96875,-0.5625 -1.53125,-1.59375 -0.5625,-1.04688 -0.5625,-2.15625 0,-1.10938 0.5625,-2.14063 0.5625,-1.04687 1.53125,-1.60937 0.96875,-0.5625 2.03125,-0.5625 2.046875,0 3.4375,1.85937 v -4.40625 h -1.046875 q -0.28125,0 -0.40625,-0.10937 -0.125,-0.10938 -0.125,-0.28125 0,-0.17188 0.125,-0.28125 0.125,-0.10938 0.40625,-0.10938 z m -0.78125,7.64063 q 0,-1.48438 -1.015625,-2.5 -1,-1.03125 -2.375,-1.03125 -1.390625,0 -2.390625,1.03125 -1,1.01562 -1,2.5 0,1.46875 1,2.5 1,1.03125 2.390625,1.03125 1.375,0 2.375,-1.03125 1.015625,-1.03125 1.015625,-2.5 z m 12.729985,0 q 0,1.78125 -1.28125,3.04687 -1.28125,1.26563 -3.07812,1.26563 -1.8125,0 -3.09375,-1.26563 -1.265635,-1.28125 -1.265635,-3.04687 0,-1.78125 1.265635,-3.04688 1.28125,-1.26562 3.09375,-1.26562 1.79687,0 3.07812,1.26562 1.28125,1.25 1.28125,3.04688 z m -0.79687,0 q 0,-1.46875 -1.04688,-2.5 -1.03125,-1.03125 -2.51562,-1.03125 -1.48438,0 -2.53125,1.04687 -1.04688,1.03125 -1.04688,2.48438 0,1.45312 1.04688,2.5 1.04687,1.03125 2.53125,1.03125 1.48437,0 2.51562,-1.03125 1.04688,-1.04688 1.04688,-2.5 z m 12.05809,0.17187 h -7.95311 q 0.21875,1.51563 1.28125,2.4375 1.0625,0.92188 2.625,0.92188 0.875,0 1.82811,-0.28125 0.95314,-0.29688 1.5625,-0.76563 0.17189,-0.14062 0.29689,-0.14062 0.15625,0 0.26561,0.125 0.10939,0.10937 0.10939,0.26562 0,0.15625 -0.15625,0.29688 -0.4375,0.46875 -1.57814,0.875 -1.14061,0.40625 -2.32811,0.40625 -2,0 -3.34375,-1.3125 -1.34375,-1.3125 -1.34375,-3.1875 0,-1.6875 1.25,-2.90625 1.26561,-1.21875 3.125,-1.21875 1.90625,0 3.14061,1.25 1.23439,1.25 1.21875,3.23437 z m -0.79686,-0.79687 q -0.23439,-1.28125 -1.21875,-2.09375 -0.98439,-0.8125 -2.34375,-0.8125 -1.375,0 -2.35939,0.8125 -0.96875,0.79687 -1.21875,2.09375 z m 8.37059,-7.17188 v 11.01563 h 2.67187 q 0.26563,0 0.39063,0.10937 0.125,0.10938 0.125,0.28125 0,0.17188 -0.125,0.28125 -0.125,0.10938 -0.39063,0.10938 h -6.125 q -0.28125,0 -0.40625,-0.10938 -0.125,-0.10937 -0.125,-0.28125 0,-0.17187 0.125,-0.28125 0.125,-0.10937 0.40625,-0.10937 h 2.67188 v -9.9375 l -2.54688,0.79687 q -0.1875,0.0469 -0.26562,0.0469 -0.14063,0 -0.26563,-0.10938 -0.10937,-0.125 -0.10937,-0.28125 0,-0.14062 0.0937,-0.25 0.0781,-0.0781 0.3125,-0.15625 z m 7.65186,11.01563 h 5.98438 v -0.29688 q 0,-0.28125 0.10937,-0.40625 0.10938,-0.125 0.29688,-0.125 0.15625,0 0.26562,0.125 0.125,0.125 0.125,0.40625 v 1.07813 h -7.53125 v -1.15625 q 2.375,-2.125 4.60938,-4.34375 1.04687,-1.01563 1.4375,-1.5 0.39062,-0.48438 0.53125,-0.84375 0.15625,-0.375 0.15625,-0.75 0,-1 -0.8125,-1.76563 -0.8125,-0.78125 -1.95313,-0.78125 -1.01562,0 -1.8125,0.59375 -0.78125,0.57813 -1.01562,1.45313 -0.0469,0.21875 -0.14063,0.28125 -0.10937,0.0937 -0.25,0.0937 -0.15625,0 -0.26562,-0.10938 -0.10938,-0.10937 -0.10938,-0.25 0,-0.45312 0.48438,-1.20312 0.48437,-0.76563 1.34375,-1.20313 0.85937,-0.4375 1.76562,-0.4375 1.45313,0 2.5,1.01563 1.04688,1 1.04688,2.28125 0,0.54687 -0.17188,1 -0.17187,0.4375 -0.60937,0.98437 -0.42188,0.53125 -1.51563,1.60938 -2.73437,2.70312 -4.46875,4.20312 z m 16.35499,-5.5625 q 1.07812,0.48437 1.64062,1.32812 0.57813,0.84375 0.57813,1.75 0,1.40625 -1.14063,2.48438 -1.14062,1.0625 -2.84375,1.0625 -1,0 -2.07812,-0.42188 -1.07813,-0.4375 -1.5,-0.875 -0.14063,-0.15625 -0.14063,-0.32812 0,-0.14063 0.0937,-0.25 0.10938,-0.10938 0.26563,-0.10938 0.14062,0 0.32812,0.14063 1.4375,1.0625 3.04688,1.0625 1.35937,0 2.26562,-0.84375 0.92188,-0.85938 0.92188,-1.89063 0,-0.70312 -0.45313,-1.35937 -0.45312,-0.67188 -1.29687,-1.0625 -0.84375,-0.39063 -1.70313,-0.39063 -0.28125,0 -0.40625,-0.0937 -0.10937,-0.10937 -0.10937,-0.28125 0,-0.17187 0.10937,-0.28125 0.10938,-0.10937 0.34375,-0.10937 h 0.67188 q 1.04687,0 1.71875,-0.64063 0.6875,-0.64062 0.6875,-1.48437 0,-0.875 -0.71875,-1.53125 -0.70313,-0.67188 -1.85938,-0.67188 -0.79687,0 -1.48437,0.28125 -0.67188,0.28125 -1.07813,0.75 -0.15625,0.1875 -0.23437,0.23438 -0.0781,0.0469 -0.17188,0.0469 -0.15625,0 -0.28125,-0.10937 -0.10937,-0.10938 -0.10937,-0.26563 0,-0.35937 0.8125,-0.9375 1.125,-0.78125 2.54687,-0.78125 1.48438,0 2.42188,0.89063 0.95312,0.875 0.95312,2.10937 0,0.78125 -0.45312,1.48438 -0.45313,0.6875 -1.34375,1.09375 z"
       id="path72"
       inkscape:connector-curvature="0"
       style="fill:#000000;fill-rule:nonzero" />
    <path
       d="M 36,195.53543 H 164.53543 V 232.5433 H 36 Z"
       id="path74"
       inkscape:connector-curvature="0"
       style="fill:#000000;fill-opacity:0;fill-rule:evenodd" />
    <path
       d="m 73.27371,215.20543 v -0.25 q 0,-0.29688 0.109375,-0.40625 0.109375,-0.125 0.28125,-0.125 0.171875,0 0.28125,0.125 0.109375,0.10937 0.109375,0.40625 v 1.75 q 0,0.29687 -0.109375,0.42187 -0.109375,0.10938 -0.28125,0.10938 -0.15625,0 -0.265625,-0.0937 -0.109375,-0.10938 -0.125,-0.35938 -0.0625,-0.67187 -0.875,-1.26562 -0.796875,-0.59375 -2.171875,-0.59375 -1.734375,0 -2.640625,1.09375 -0.90625,1.07812 -0.90625,2.48437 0,1.51563 0.984375,2.5 1,0.98438 2.578125,0.98438 0.921875,0 1.859375,-0.32813 0.9375,-0.34375 1.703125,-1.09375 0.1875,-0.17187 0.34375,-0.17187 0.15625,0 0.265625,0.10937 0.109375,0.0937 0.109375,0.25 0,0.40625 -0.9375,1.01563 -1.515625,1 -3.375,1 -1.875,0 -3.09375,-1.20313 -1.203125,-1.20312 -1.203125,-3.04687 0,-1.89063 1.234375,-3.125 1.234375,-1.25 3.125,-1.25 1.78125,0 3,1.0625 z m 12.51123,3.25 q 0,1.78125 -1.28125,3.04687 -1.28125,1.26563 -3.078125,1.26563 -1.8125,0 -3.09375,-1.26563 -1.265625,-1.28125 -1.265625,-3.04687 0,-1.78125 1.265625,-3.04688 1.28125,-1.26562 3.09375,-1.26562 1.796875,0 3.078125,1.26562 1.28125,1.25 1.28125,3.04688 z m -0.796875,0 q 0,-1.46875 -1.046875,-2.5 -1.03125,-1.03125 -2.515625,-1.03125 -1.484375,0 -2.53125,1.04687 -1.046875,1.03125 -1.046875,2.48438 0,1.45312 1.046875,2.5 1.046875,1.03125 2.53125,1.03125 1.484375,0 2.515625,-1.03125 1.046875,-1.04688 1.046875,-2.5 z m 12.19873,0 q 0,1.78125 -1.28125,3.04687 -1.28125,1.26563 -3.078125,1.26563 -1.8125,0 -3.09375,-1.26563 -1.265625,-1.28125 -1.265625,-3.04687 0,-1.78125 1.265625,-3.04688 1.28125,-1.26562 3.09375,-1.26562 1.796875,0 3.078125,1.26562 1.28125,1.25 1.28125,3.04688 z m -0.796875,0 q 0,-1.46875 -1.046875,-2.5 -1.03125,-1.03125 -2.515625,-1.03125 -1.484375,0 -2.53125,1.04687 -1.046875,1.03125 -1.046875,2.48438 0,1.45312 1.046875,2.5 1.046875,1.03125 2.53125,1.03125 1.484375,0 2.515625,-1.03125 1.046875,-1.04688 1.046875,-2.5 z m 8.22998,-7.64063 v 10.85938 h 3.0625 q 0.28125,0 0.40625,0.10937 0.125,0.10938 0.125,0.28125 0,0.17188 -0.125,0.28125 -0.125,0.10938 -0.40625,0.10938 h -6.90625 q -0.28125,0 -0.40625,-0.10938 -0.10938,-0.10937 -0.10938,-0.28125 0,-0.17187 0.10938,-0.28125 0.125,-0.10937 0.40625,-0.10937 h 3.0625 v -10.07813 h -2.23438 q -0.28125,0 -0.40625,-0.10937 -0.125,-0.10938 -0.125,-0.28125 0,-0.17188 0.10938,-0.28125 0.125,-0.10938 0.42187,-0.10938 z m 14.26123,4.39063 v -0.25 q 0,-0.29688 0.10937,-0.40625 0.10938,-0.125 0.28125,-0.125 0.17188,0 0.28125,0.125 0.10938,0.10937 0.10938,0.40625 v 1.75 q 0,0.29687 -0.10938,0.42187 -0.10937,0.10938 -0.28125,0.10938 -0.15625,0 -0.26562,-0.0937 -0.10938,-0.10938 -0.125,-0.35938 -0.0625,-0.67187 -0.875,-1.26562 -0.79688,-0.59375 -2.17188,-0.59375 -1.73437,0 -2.64062,1.09375 -0.90625,1.07812 -0.90625,2.48437 0,1.51563 0.98437,2.5 1,0.98438 2.57813,0.98438 0.92187,0 1.85937,-0.32813 0.9375,-0.34375 1.70313,-1.09375 0.1875,-0.17187 0.34375,-0.17187 0.15625,0 0.26562,0.10937 0.10938,0.0937 0.10938,0.25 0,0.40625 -0.9375,1.01563 -1.51563,1 -3.375,1 -1.875,0 -3.09375,-1.20313 -1.20313,-1.20312 -1.20313,-3.04687 0,-1.89063 1.23438,-3.125 1.23437,-1.25 3.125,-1.25 1.78125,0 3,1.0625 z m 10.38623,7.25 v -1.125 q -1.6875,1.4375 -3.625,1.4375 -1.40625,0 -2.1875,-0.70313 -0.78125,-0.71875 -0.78125,-1.75 0,-1.14062 1.03125,-1.98437 1.04687,-0.84375 3.03125,-0.84375 0.54687,0 1.17187,0.0781 0.625,0.0625 1.35938,0.21875 v -1.26562 q 0,-0.64063 -0.59375,-1.10938 -0.59375,-0.48437 -1.78125,-0.48437 -0.90625,0 -2.54688,0.53125 -0.29687,0.0937 -0.375,0.0937 -0.15625,0 -0.26562,-0.10938 -0.10938,-0.10937 -0.10938,-0.28125 0,-0.15625 0.0937,-0.25 0.14063,-0.14062 1.0625,-0.375 1.4375,-0.39062 2.1875,-0.39062 1.46875,0 2.29688,0.73437 0.82812,0.71875 0.82812,1.64063 v 5.15625 h 1.03125 q 0.29688,0 0.40625,0.10937 0.125,0.10938 0.125,0.28125 0,0.17188 -0.125,0.28125 -0.10937,0.10938 -0.40625,0.10938 z m 0,-3.875 q -0.54688,-0.15625 -1.15625,-0.23438 -0.60938,-0.0781 -1.28125,-0.0781 -1.70313,0 -2.65625,0.73437 -0.73438,0.54688 -0.73438,1.3125 0,0.70313 0.54688,1.1875 0.5625,0.48438 1.625,0.48438 1,0 1.85937,-0.40625 0.875,-0.40625 1.79688,-1.28125 z m 7.55811,-4.15625 h 4.23437 q 0.28125,0 0.39063,0.10937 0.125,0.10938 0.125,0.28125 0,0.17188 -0.125,0.28125 -0.10938,0.10938 -0.39063,0.10938 h -4.23437 v 5.1875 q 0,0.6875 0.54687,1.14062 0.54688,0.45313 1.59375,0.45313 0.78125,0 1.70313,-0.23438 0.92187,-0.25 1.4375,-0.54687 0.1875,-0.10938 0.29687,-0.10938 0.15625,0 0.26563,0.125 0.10937,0.10938 0.10937,0.26563 0,0.14062 -0.125,0.25 -0.29687,0.3125 -1.4375,0.67187 -1.14062,0.35938 -2.1875,0.35938 -1.375,0 -2.1875,-0.64063 -0.79687,-0.64062 -0.79687,-1.73437 v -5.1875 h -1.4375 q -0.28125,0 -0.40625,-0.10938 -0.10938,-0.10937 -0.10938,-0.28125 0,-0.17187 0.10938,-0.28125 0.125,-0.10937 0.40625,-0.10937 h 1.4375 v -2.29688 q 0,-0.28125 0.10937,-0.40625 0.10938,-0.125 0.28125,-0.125 0.17188,0 0.28125,0.125 0.10938,0.125 0.10938,0.40625 z m 9.65185,7.25 h 5.98438 v -0.29688 q 0,-0.28125 0.10937,-0.40625 0.10938,-0.125 0.29688,-0.125 0.15625,0 0.26562,0.125 0.125,0.125 0.125,0.40625 v 1.07813 h -7.53125 v -1.15625 q 2.375,-2.125 4.60938,-4.34375 1.04687,-1.01563 1.4375,-1.5 0.39062,-0.48438 0.53125,-0.84375 0.15625,-0.375 0.15625,-0.75 0,-1 -0.8125,-1.76563 -0.8125,-0.78125 -1.95313,-0.78125 -1.01562,0 -1.8125,0.59375 -0.78125,0.57813 -1.01562,1.45313 -0.0469,0.21875 -0.14063,0.28125 -0.10937,0.0937 -0.25,0.0937 -0.15625,0 -0.26562,-0.10938 -0.10938,-0.10937 -0.10938,-0.25 0,-0.45312 0.48438,-1.20312 0.48437,-0.76563 1.34375,-1.20313 0.85937,-0.4375 1.76562,-0.4375 1.45313,0 2.5,1.01563 1.04688,1 1.04688,2.28125 0,0.54687 -0.17188,1 -0.17187,0.4375 -0.60937,0.98437 -0.42188,0.53125 -1.51563,1.60938 -2.73437,2.70312 -4.46875,4.20312 z"
       id="path76"
       inkscape:connector-curvature="0"
       style="fill:#000000;fill-rule:nonzero" />
    <path
       d="m 36,262 h 128.53543 v 37.00787 H 36 Z"
       id="path78"
       inkscape:connector-curvature="0"
       style="fill:#000000;fill-opacity:0;fill-rule:evenodd" />
    <path
       d="m 57.01248,280.88873 h 4.234375 q 0.28125,0 0.390625,0.10937 0.125,0.10938 0.125,0.28125 0,0.17188 -0.125,0.28125 -0.109375,0.10938 -0.390625,0.10938 H 57.01248 v 5.1875 q 0,0.6875 0.546875,1.14062 0.546875,0.45313 1.59375,0.45313 0.78125,0 1.703125,-0.23438 0.921875,-0.25 1.4375,-0.54687 0.1875,-0.10938 0.296875,-0.10938 0.15625,0 0.265625,0.125 0.109375,0.10938 0.109375,0.26563 0,0.14062 -0.125,0.25 -0.296875,0.3125 -1.4375,0.67187 -1.140625,0.35938 -2.1875,0.35938 -1.375,0 -2.1875,-0.64063 -0.796875,-0.64062 -0.796875,-1.73437 v -5.1875 h -1.4375 q -0.28125,0 -0.40625,-0.10938 -0.109375,-0.10937 -0.109375,-0.28125 0,-0.17187 0.109375,-0.28125 0.125,-0.10937 0.40625,-0.10937 h 1.4375 v -2.29688 q 0,-0.28125 0.109375,-0.40625 0.109375,-0.125 0.28125,-0.125 0.171875,0 0.28125,0.125 0.109375,0.125 0.109375,0.40625 z m 17.22998,4.20312 h -7.953125 q 0.21875,1.51563 1.28125,2.4375 1.0625,0.92188 2.625,0.92188 0.875,0 1.828125,-0.28125 0.953125,-0.29688 1.5625,-0.76563 0.171875,-0.14062 0.296875,-0.14062 0.15625,0 0.265625,0.125 0.109375,0.10937 0.109375,0.26562 0,0.15625 -0.15625,0.29688 -0.4375,0.46875 -1.578125,0.875 -1.140625,0.40625 -2.328125,0.40625 -2,0 -3.34375,-1.3125 -1.34375,-1.3125 -1.34375,-3.1875 0,-1.6875 1.25,-2.90625 1.265625,-1.21875 3.125,-1.21875 1.90625,0 3.140625,1.25 1.234375,1.25 1.21875,3.23437 z m -0.796875,-0.79687 q -0.234375,-1.28125 -1.21875,-2.09375 -0.984375,-0.8125 -2.34375,-0.8125 -1.375,0 -2.359375,0.8125 -0.96875,0.79687 -1.21875,2.09375 z m 10.214355,4.625 v -1.125 q -1.6875,1.4375 -3.625,1.4375 -1.40625,0 -2.1875,-0.70313 -0.78125,-0.71875 -0.78125,-1.75 0,-1.14062 1.03125,-1.98437 1.046875,-0.84375 3.03125,-0.84375 0.546875,0 1.171875,0.0781 0.625,0.0625 1.359375,0.21875 v -1.26562 q 0,-0.64063 -0.59375,-1.10938 -0.59375,-0.48437 -1.78125,-0.48437 -0.90625,0 -2.546875,0.53125 -0.296875,0.0937 -0.375,0.0937 -0.15625,0 -0.265625,-0.10938 -0.109375,-0.10937 -0.109375,-0.28125 0,-0.15625 0.09375,-0.25 0.140625,-0.14062 1.0625,-0.375 1.4375,-0.39062 2.1875,-0.39062 1.46875,0 2.296875,0.73437 0.828125,0.71875 0.828125,1.64063 v 5.15625 h 1.03125 q 0.296875,0 0.40625,0.10937 0.125,0.10938 0.125,0.28125 0,0.17188 -0.125,0.28125 -0.109375,0.10938 -0.40625,0.10938 z m 0,-3.875 q -0.546875,-0.15625 -1.15625,-0.23438 -0.609375,-0.0781 -1.28125,-0.0781 -1.703125,0 -2.65625,0.73437 -0.734375,0.54688 -0.734375,1.3125 0,0.70313 0.546875,1.1875 0.5625,0.48438 1.625,0.48438 1,0 1.859375,-0.40625 0.875,-0.40625 1.796875,-1.28125 z m 5.620605,-4.15625 v 0.78125 q 0.984375,-1.0625 1.984375,-1.0625 0.609375,0 1.0625,0.32812 0.453125,0.3125 0.765625,0.96875 0.515625,-0.65625 1.046875,-0.96875 0.53125,-0.32812 1.078125,-0.32812 0.84375,0 1.34375,0.54687 0.65625,0.70313 0.65625,1.54688 v 5.4375 h 0.65625 q 0.28125,0 0.390625,0.10937 0.125,0.10938 0.125,0.28125 0,0.17188 -0.125,0.28125 -0.109375,0.10938 -0.390625,0.10938 h -1.4375 v -6.15625 q 0,-0.59375 -0.359375,-0.98438 -0.359375,-0.39062 -0.828125,-0.39062 -0.4375,0 -0.90625,0.32812 -0.46875,0.3125 -1.078125,1.25 v 5.17188 h 0.65625 q 0.265625,0 0.390625,0.10937 0.125,0.10938 0.125,0.28125 0,0.17188 -0.125,0.28125 -0.125,0.10938 -0.390625,0.10938 h -1.4375 v -6.09375 q 0,-0.625 -0.375,-1.03125 -0.359375,-0.40625 -0.8125,-0.40625 -0.421875,0 -0.828125,0.28125 -0.5625,0.375 -1.1875,1.29687 v 5.17188 h 0.65625 q 0.28125,0 0.390625,0.10937 0.125,0.10938 0.125,0.28125 0,0.17188 -0.125,0.28125 -0.109375,0.10938 -0.390625,0.10938 h -2.09375 q -0.28125,0 -0.40625,-0.10938 -0.125,-0.10937 -0.125,-0.28125 0,-0.17187 0.125,-0.28125 0.125,-0.10937 0.40625,-0.10937 h 0.65625 v -6.46875 h -0.65625 q -0.28125,0 -0.40625,-0.10938 -0.125,-0.10937 -0.125,-0.28125 0,-0.17187 0.125,-0.28125 0.125,-0.10937 0.40625,-0.10937 z m 17.183105,8.03125 v -1.125 q -1.6875,1.4375 -3.625,1.4375 -1.40625,0 -2.1875,-0.70313 -0.78125,-0.71875 -0.78125,-1.75 0,-1.14062 1.03125,-1.98437 1.04688,-0.84375 3.03125,-0.84375 0.54688,0 1.17188,0.0781 0.625,0.0625 1.35937,0.21875 v -1.26562 q 0,-0.64063 -0.59375,-1.10938 -0.59375,-0.48437 -1.78125,-0.48437 -0.90625,0 -2.54687,0.53125 -0.29688,0.0937 -0.375,0.0937 -0.15625,0 -0.26563,-0.10938 -0.10937,-0.10937 -0.10937,-0.28125 0,-0.15625 0.0937,-0.25 0.14062,-0.14062 1.0625,-0.375 1.4375,-0.39062 2.1875,-0.39062 1.46875,0 2.29687,0.73437 0.82813,0.71875 0.82813,1.64063 v 5.15625 h 1.03125 q 0.29687,0 0.40625,0.10937 0.125,0.10938 0.125,0.28125 0,0.17188 -0.125,0.28125 -0.10938,0.10938 -0.40625,0.10938 z m 0,-3.875 q -0.54687,-0.15625 -1.15625,-0.23438 -0.60937,-0.0781 -1.28125,-0.0781 -1.70312,0 -2.65625,0.73437 -0.73437,0.54688 -0.73437,1.3125 0,0.70313 0.54687,1.1875 0.5625,0.48438 1.625,0.48438 1,0 1.85938,-0.40625 0.875,-0.40625 1.79687,-1.28125 z m 6.65186,-4.15625 v 1.17187 q 0.8125,-0.82812 1.46875,-1.14062 0.65625,-0.3125 1.48437,-0.3125 0.89063,0 1.625,0.375 0.51563,0.28125 0.9375,0.9375 0.42188,0.64062 0.42188,1.3125 v 4.90625 h 0.65625 q 0.28125,0 0.40625,0.10937 0.125,0.10938 0.125,0.28125 0,0.17188 -0.125,0.28125 -0.125,0.10938 -0.40625,0.10938 h -2.07813 q -0.29687,0 -0.42187,-0.10938 -0.10938,-0.10937 -0.10938,-0.28125 0,-0.17187 0.10938,-0.28125 0.125,-0.10937 0.42187,-0.10937 h 0.64063 v -4.78125 q 0,-0.82813 -0.60938,-1.39063 -0.59375,-0.57812 -1.60937,-0.57812 -0.76563,0 -1.32813,0.3125 -0.5625,0.3125 -1.60937,1.54687 v 4.89063 h 0.875 q 0.28125,0 0.39062,0.10937 0.125,0.10938 0.125,0.28125 0,0.17188 -0.125,0.28125 -0.10937,0.10938 -0.39062,0.10938 h -2.54688 q -0.26562,0 -0.39062,-0.10938 -0.125,-0.10937 -0.125,-0.28125 0,-0.17187 0.125,-0.28125 0.125,-0.10937 0.39062,-0.10937 h 0.89063 v -6.46875 h -0.65625 q -0.28125,0 -0.40625,-0.10938 -0.125,-0.10937 -0.125,-0.28125 0,-0.17187 0.125,-0.28125 0.125,-0.10937 0.40625,-0.10937 z m 14.3081,-4 v 2.01562 h -1.15625 v -2.01562 z m 0.0156,4 v 7.25 h 3.0625 q 0.29687,0 0.40625,0.10937 0.125,0.10938 0.125,0.28125 0,0.17188 -0.125,0.28125 -0.10938,0.10938 -0.40625,0.10938 h -6.90625 q -0.26563,0 -0.39063,-0.10938 -0.125,-0.10937 -0.125,-0.28125 0,-0.17187 0.125,-0.28125 0.125,-0.10937 0.39063,-0.10937 h 3.0625 v -6.46875 h -2.26563 q -0.28125,0 -0.40625,-0.10938 -0.125,-0.10937 -0.125,-0.28125 0,-0.17187 0.125,-0.28125 0.125,-0.10937 0.40625,-0.10937 z m 13.22998,8.03125 v -1.125 q -1.6875,1.4375 -3.625,1.4375 -1.40625,0 -2.1875,-0.70313 -0.78125,-0.71875 -0.78125,-1.75 0,-1.14062 1.03125,-1.98437 1.04687,-0.84375 3.03125,-0.84375 0.54687,0 1.17187,0.0781 0.625,0.0625 1.35938,0.21875 v -1.26562 q 0,-0.64063 -0.59375,-1.10938 -0.59375,-0.48437 -1.78125,-0.48437 -0.90625,0 -2.54688,0.53125 -0.29687,0.0937 -0.375,0.0937 -0.15625,0 -0.26562,-0.10938 -0.10938,-0.10937 -0.10938,-0.28125 0,-0.15625 0.0937,-0.25 0.14063,-0.14062 1.0625,-0.375 1.4375,-0.39062 2.1875,-0.39062 1.46875,0 2.29688,0.73437 0.82812,0.71875 0.82812,1.64063 v 5.15625 h 1.03125 q 0.29688,0 0.40625,0.10937 0.125,0.10938 0.125,0.28125 0,0.17188 -0.125,0.28125 -0.10937,0.10938 -0.40625,0.10938 z m 0,-3.875 q -0.54688,-0.15625 -1.15625,-0.23438 -0.60938,-0.0781 -1.28125,-0.0781 -1.70313,0 -2.65625,0.73437 -0.73438,0.54688 -0.73438,1.3125 0,0.70313 0.54688,1.1875 0.5625,0.48438 1.625,0.48438 1,0 1.85937,-0.40625 0.875,-0.40625 1.79688,-1.28125 z m 12.41748,-3.375 v -0.25 q 0,-0.29688 0.10937,-0.40625 0.10938,-0.125 0.28125,-0.125 0.17188,0 0.28125,0.125 0.10938,0.10937 0.10938,0.40625 v 1.75 q 0,0.29687 -0.10938,0.42187 -0.10937,0.10938 -0.28125,0.10938 -0.15625,0 -0.26562,-0.0937 -0.10938,-0.10938 -0.125,-0.35938 -0.0625,-0.67187 -0.875,-1.26562 -0.79688,-0.59375 -2.17188,-0.59375 -1.73437,0 -2.64062,1.09375 -0.90625,1.07812 -0.90625,2.48437 0,1.51563 0.98437,2.5 1,0.98438 2.57813,0.98438 0.92187,0 1.85937,-0.32813 0.9375,-0.34375 1.70313,-1.09375 0.1875,-0.17187 0.34375,-0.17187 0.15625,0 0.26562,0.10937 0.10938,0.0937 0.10938,0.25 0,0.40625 -0.9375,1.01563 -1.51563,1 -3.375,1 -1.875,0 -3.09375,-1.20313 -1.20313,-1.20312 -1.20313,-3.04687 0,-1.89063 1.23438,-3.125 1.23437,-1.25 3.125,-1.25 1.78125,0 3,1.0625 z"
       id="path80"
       inkscape:connector-curvature="0"
       style="fill:#000000;fill-rule:nonzero" />
    <path
       d="m 164.53543,147.5748 60.47244,66.4567"
       id="path82"
       inkscape:connector-curvature="0"
       style="fill:#000000;fill-opacity:0;fill-rule:evenodd" />
    <path
       d="m 164.53543,147.5748 52.39618,57.58122"
       id="path84"
       inkscape:connector-curvature="0"
       style="fill-rule:evenodd;stroke:#000000;stroke-width:2;stroke-linecap:butt;stroke-linejoin:round" />
    <path
       d="m 214.4883,207.37933 8.55179,4.48965 -3.66515,-8.93626 z"
       id="path86"
       inkscape:connector-curvature="0"
       style="fill:#000000;fill-rule:evenodd;stroke:#000000;stroke-width:2;stroke-linecap:butt" />
    <path
       d="m 164.53543,214.03937 h 60.47244"
       id="path88"
       inkscape:connector-curvature="0"
       style="fill:#000000;fill-opacity:0;fill-rule:evenodd" />
    <path
       d="m 164.53543,214.03937 h 48.47244"
       id="path90"
       inkscape:connector-curvature="0"
       style="fill-rule:evenodd;stroke:#000000;stroke-width:2;stroke-linecap:butt;stroke-linejoin:round" />
    <path
       d="m 213.00787,217.34283 9.0762,-3.30347 -9.0762,-3.30346 z"
       id="path92"
       inkscape:connector-curvature="0"
       style="fill:#000000;fill-rule:evenodd;stroke:#000000;stroke-width:2;stroke-linecap:butt" />
    <path
       d="m 164.53543,280.50394 60.47244,-66.4567"
       id="path94"
       inkscape:connector-curvature="0"
       style="fill:#000000;fill-opacity:0;fill-rule:evenodd" />
    <path
       d="m 164.53543,280.50394 52.39618,-57.58122"
       id="path96"
       inkscape:connector-curvature="0"
       style="fill-rule:evenodd;stroke:#000000;stroke-width:2;stroke-linecap:butt;stroke-linejoin:round" />
    <path
       d="m 219.37494,225.14603 3.66515,-8.93626 -8.55179,4.48965 z"
       id="path98"
       inkscape:connector-curvature="0"
       style="fill:#000000;fill-rule:evenodd;stroke:#000000;stroke-width:2;stroke-linecap:butt" />
    <path
       d="M 353.53543,214.03937 465,84.52756"
       id="path100"
       inkscape:connector-curvature="0"
       style="fill:#000000;fill-opacity:0;fill-rule:evenodd" />
    <path
       d="M 353.53543,214.03937 457.17212,93.62285"
       id="path102"
       inkscape:connector-curvature="0"
       style="fill-rule:evenodd;stroke:#000000;stroke-width:2;stroke-linecap:butt;stroke-linejoin:round" />
    <path
       d="m 459.67596,95.77778 3.41678,-9.034149 -8.42444,4.724297 z"
       id="path104"
       inkscape:connector-curvature="0"
       style="fill:#000000;fill-rule:evenodd;stroke:#000000;stroke-width:2;stroke-linecap:butt" />
    <path
       d="M 353.53543,214.03937 465,195.55118"
       id="path106"
       inkscape:connector-curvature="0"
       style="fill:#000000;fill-opacity:0;fill-rule:evenodd" />
    <path
       d="m 353.53543,214.03937 99.62631,-16.52463"
       id="path108"
       inkscape:connector-curvature="0"
       style="fill-rule:evenodd;stroke:#000000;stroke-width:2;stroke-linecap:butt;stroke-linejoin:round" />
    <path
       d="m 453.7023,200.77368 8.4133,-4.74408 -9.49442,-1.77379 z"
       id="path110"
       inkscape:connector-curvature="0"
       style="fill:#000000;fill-rule:evenodd;stroke:#000000;stroke-width:2;stroke-linecap:butt" />
    <path
       d="M 353.53543,214.03937 465,380.59055"
       id="path112"
       inkscape:connector-curvature="0"
       style="fill:#000000;fill-opacity:0;fill-rule:evenodd" />
    <path
       d="M 353.53543,214.03937 458.32574,370.61786"
       id="path114"
       inkscape:connector-curvature="0"
       style="fill-rule:evenodd;stroke:#000000;stroke-width:2;stroke-linecap:butt;stroke-linejoin:round" />
    <path
       d="m 455.58038,372.4552 7.79343,5.70551 -2.30268,-9.38019 z"
       id="path116"
       inkscape:connector-curvature="0"
       style="fill:#000000;fill-rule:evenodd;stroke:#000000;stroke-width:2;stroke-linecap:butt" />
  </g>
</svg>
